<svg width="23" height="21" viewBox="0 0 23 21" fill="none" xmlns="http://www.w3.org/2000/svg">
<g clip-path="url(#clip0_8_159)">
<path d="M22.986 10.3589L22.9776 10.3197C22.9691 10.2847 22.9581 10.2503 22.9448 10.2169C22.9448 10.2066 22.9382 10.1963 22.9336 10.186C22.9151 10.1444 22.8931 10.1044 22.868 10.0664C22.868 10.0598 22.8587 10.0533 22.854 10.0468C22.832 10.0161 22.8079 9.9871 22.7819 9.95984L22.7556 9.93367C22.7287 9.90794 22.6999 9.8842 22.6695 9.86263L22.647 9.84581C22.6124 9.82281 22.5761 9.8025 22.5384 9.78506L1.11255 0.0701711C0.972256 0.0068622 0.816448 -0.014014 0.664394 0.0101245C0.51234 0.0342629 0.370709 0.102357 0.257019 0.205986C0.143328 0.309614 0.0625648 0.444231 0.0247165 0.593188C-0.0131318 0.742145 -0.00640466 0.898908 0.044066 1.04409L3.25139 10.2187H13.9746V10.7795H3.25139L0.044066 19.9561C-0.00463143 20.0956 -0.0128892 20.246 0.0202418 20.39C0.0533729 20.534 0.126548 20.6658 0.231355 20.7701L0.257575 20.7954C0.371431 20.8989 0.513192 20.9668 0.665319 20.9907C0.817445 21.0146 0.97326 20.9935 1.11349 20.93L22.5384 11.216C22.576 11.1993 22.612 11.1792 22.6461 11.1562L22.6723 11.1366C22.7004 11.116 22.7273 11.0938 22.7528 11.0702L22.7837 11.0403C22.8077 11.0147 22.8299 10.9875 22.8502 10.959L22.8699 10.9338C22.8941 10.8967 22.9151 10.8576 22.9326 10.8169C22.9378 10.8054 22.9422 10.7935 22.9457 10.7814C22.9582 10.751 22.9685 10.7198 22.9766 10.6879C22.9766 10.6739 22.9832 10.6608 22.986 10.6459C22.9949 10.5997 22.9996 10.5527 23.0001 10.5057C22.9999 10.4564 22.9952 10.4073 22.986 10.3589V10.3589Z" fill="#BEBEDC"/>
</g>
<defs>
<clipPath id="clip0_8_159">
<rect width="23" height="21" fill="white"/>
</clipPath>
</defs>
</svg>
